<?xml version="1.0" encoding="utf-8"?>
<!-- Generator: Adobe Illustrator 15.0.0, SVG Export Plug-In . SVG Version: 6.00 Build 0)  -->
<!DOCTYPE svg PUBLIC "-//W3C//DTD SVG 1.1//EN" "http://www.w3.org/Graphics/SVG/1.1/DTD/svg11.dtd">
<svg version="1.1" id="Layer_1" xmlns="http://www.w3.org/2000/svg" xmlns:xlink="http://www.w3.org/1999/xlink" x="0px" y="0px"
	 width="1383px" height="352px" viewBox="0 0 1383 352" enable-background="new 0 0 1383 352" xml:space="preserve">
<path d="M160,0.6C92,7.1,33.7,52.3,10.5,116.5c-16.1,44.5-13,95.6,8.6,138.6c8.6,17.301,18,30.102,32.8,44.9
	C67,315.1,79.6,324.3,97,333c60.6,30.4,133.5,23.4,186.5-17.8c41.3-32.101,65.6-79,68.2-131.2C355.9,96.5,294.2,18.7,208,3
	C196.7,1,170.3-0.4,160,0.6z M148.1,31.7c7.4,3.8,11.1,9.3,11.7,17.2c0.5,7.2-1,12.1-5.1,16.8c-8.7,9.9-25.3,9.7-33.6-0.3
	c-9.3-11.4-5.2-28.3,8.4-34.5C135.4,28.2,141.6,28.5,148.1,31.7z M191.8,52.7c-0.8,1-3.6,4.3-6.2,7.3C173,74.3,168.5,90.4,171,111.9
	c1.5,13.3,5,22.8,21.6,59.5c18.8,41.4,21.8,49,24.3,61.3c6.8,33.399-4.5,58.1-38.3,83.7c-2.7,2-5.1,3.5-5.3,3.199
	c-0.3-0.199,1.8-4,4.6-8.301c8.9-14,12.1-23.6,12.1-36.699c-0.1-17.699-4.7-31.899-19.9-61.601c-26.6-52.2-29.8-59.2-32.5-72.3
	c-6.9-33.2,6.1-58.1,43.3-82.8C191.3,51,194.6,49.4,191.8,52.7z"/>
<path d="M1116.5,2.4c-14.6,6.4-15.3,26.7-1.2,34.7c6.4,3.6,14.8,3.4,21.2-0.6c12.4-7.7,12.9-26.1,0.9-33.1
	c-3.302-1.9-5.4-2.4-11-2.4C1122.6,1.1,1118.2,1.7,1116.5,2.4z"/>
<path d="M421,16.9v9.8l3.8,0.7c2,0.3,5.2,0.6,7,0.6h3.2l-0.2,52.2l-0.3,52.3l-6.7,0.3l-6.8,0.3v9.9v10h34h34v-10v-10h-7.5H474v-26.3
	c0-14.4,0.3-38,0.7-52.5l0.6-26.2h3.102c1.698,0,4.8-0.3,6.898-0.6l3.7-0.7v-9.8V7h-34h-34V16.9z"/>
<path d="M681.5,27.4c-17.6,6.3-18.1,6.6-18.9,12.2c-0.3,2.6-0.6,6.5-0.6,8.8c0,2.3-0.4,4.6-0.8,5.2c-0.4,0.7-4.2,1.5-8.4,1.9
	l-7.8,0.7v9.9V76h7.5h7.5v31c0,28.9,0.1,31.3,2,34.9c2.8,5.5,9.5,10.9,15.9,12.8c9.1,2.6,33.198,0.3,49.698-4.8
	c5.602-1.7,6.4-2.3,6.4-4.4c0-4.1-2.2-17.5-2.9-17.5c-0.3,0-3.8,0.7-7.6,1.5c-9.7,2-19.4,1.9-22.1-0.3c-4.102-3.3-4.4-5.2-4.4-29.6
	V76h17h17v-2.8c0-1.6,0.3-6.3,0.6-10.5l0.7-7.7h-17.7H697l0.7-16l0.6-16l-2.398,0.1C694.6,23.1,688.1,25,681.5,27.4z"/>
<path d="M1206.5,27.4c-17.6,6.3-18.1,6.6-18.9,12.2c-0.3,2.6-0.6,6.5-0.6,8.8c0,2.3-0.4,4.6-0.8,5.2c-0.4,0.7-4.2,1.5-8.4,1.9
	l-7.8,0.7v9.9V76h7.5h7.5v31c0,28.9,0.1,31.3,2,34.9c2.8,5.5,9.5,10.9,15.9,12.8c9.1,2.6,33.198,0.3,49.698-4.8
	c5.602-1.7,6.4-2.3,6.4-4.4c0-4.1-2.2-17.5-2.9-17.5c-0.3,0-3.8,0.7-7.6,1.5c-9.7,2-19.4,1.9-22.101-0.3
	c-4.101-3.3-4.399-5.2-4.399-29.6V76h17h17v-2.8c0-1.6,0.3-6.3,0.6-10.5l0.7-7.7h-17.7H1222l0.7-16l0.6-16l-2.399,0.1
	C1219.6,23.1,1213.1,25,1206.5,27.4z"/>
<path d="M907.8,52.1C888.9,54.2,873.7,63.9,867.1,78c-2.198,4.7-2.6,6.8-2.6,15c0,8,0.4,10.2,2.3,13.8c3.3,6.3,9.9,13,16,16.5l5.3,3
	l-3.8,2.2c-19.2,11-18.3,10.3-18.3,14.5c0,7.6,4.5,14.1,12.1,17.5c2.102,1,3.9,2.1,3.9,2.5c0,0.3-4.3,3.3-9.6,6.6
	c-13.5,8.3-15.4,10.2-15.4,15.5c0,12.7,12,21.801,33,25c11,1.7,36.3,0.602,47-2.1c24.2-6,39-20.1,39-37.3c0-7.3-1.6-12.2-5.3-16.3
	c-7.8-9-14.8-11.1-41.3-12.4c-11.2-0.6-21.5-1.5-22.9-2.2c-3-1.3-3.2-4.3-0.6-7.7c1.5-2,2.8-2.4,9.698-2.7c11.5-0.7,18-2.1,26-6
	c8.5-4,14.4-9.6,18.102-17.2c3.8-7.8,4.5-20.7,1.5-27.6L959.1,74h9h8.9V63.4V52.8l-17.4,0.7C948.7,54,939.7,53.8,935.4,53.2
	C925,51.6,915.3,51.2,907.8,52.1z M920.8,70.6c4,2.6,5.602,7.9,5.602,18.4c0.1,15.4-4.102,23-12.5,23c-4.7,0-9.302-3.6-11.102-8.8
	c-0.7-2-1.3-7.8-1.3-12.7c0-7.6,0.4-9.8,2.5-14C908,68.6,914.3,66.4,920.8,70.6z M922.4,170c14.698,1.2,16.6,2.2,16.6,8.6
	c0,3.9-0.5,5.102-3.3,7.9c-4.102,4.1-11.7,6.5-20.5,6.5c-17.4,0-24.2-7.8-17.5-20.2l2.7-4.9l5,0.6
	C908.2,168.8,915.8,169.5,922.4,170z"/>
<path d="M533,54.6c-7.4,1.2-16.5,2.6-20.2,3l-6.8,0.7v9.8V78h7h7l-0.2,27.7l-0.3,27.8l-5.7,0.3l-5.8,0.3v9.9v10h29h29v-10v-10h-4.5
	H557v-23.5V87l5.3-3c10.5-6.1,16.602-6.1,20.102,0c1.8,3,2,5.4,2,26.4l0.1,23.1l-4.7,0.3l-4.8,0.3v6.8c0,3.8-0.3,8.3-0.6,10
	L573.8,154h29H631.9l0.3-10l0.3-10H627h-5.5v-28.7c0-33.3-0.1-33.8-9.7-43.9c-7.3-7.7-10.898-9.4-20.3-9.4c-8.7,0-14.4,2-26.9,9.4
	c-4.398,2.6-8.198,4.3-8.6,3.9c-0.4-0.4-1.3-3.6-2-7.1C552.5,50.8,553.6,51,533,54.6z"/>
<path d="M785.6,53.5C767,58.8,752.4,73.6,747.5,92c-3.6,13.6-2.6,29,2.7,39.9c4.8,10,17.1,18.9,30.8,22.2c3.1,0.7,10.6,1.3,17,1.2
	c9.4,0,13.6-0.6,23-3.1c6.3-1.6,13.6-3.9,16.3-5.1c4-1.7,4.7-2.4,4.3-4.3c-2-9.6-3.898-16.8-4.6-16.8c-0.5,0-5.1,1.1-10.2,2.5
	c-17.398,4.7-28.898,4.4-36.1-0.8c-3-2.3-6.7-9.1-6.7-12.4c0-2.1,0.4-2.1,24.6-2.5l24.5-0.3l5.5-5.7c5.2-5.4,5.4-5.8,5.4-11.2
	c0-11.6-4.7-25-11.5-32.4c-2.1-2.3-6.7-5.6-10.3-7.4c-6.3-3.1-7.3-3.3-19.2-3.5C794.7,52.2,788.8,52.6,785.6,53.5z M801.6,72.5
	c2.5,1,4,2.6,5.4,5.7c2.7,6.2,3.6,13.8,1.9,14.9C808.1,93.6,802,94,795.2,94H783l0.6-4.3c0.9-6.6,2.4-10.5,5.2-13.8
	C792.9,71,796,70.1,801.6,72.5z"/>
<path d="M1011,54.6c-8.5,1.2-16.9,2.3-18.6,2.3c-3.102,0.1-3.102,0.2-3.802,6.2c-0.3,3.4-0.6,7.9-0.6,10V77h4.8
	c2.602,0,5.7,0.3,7,0.6l2.2,0.6l-0.2,27.7l-0.3,27.6l-3.5,0.3c-8.3,0.6-8,0.2-8,10.7v9.5h32.9h32.898l0.602-3.1
	c0.3-1.7,0.6-6.2,0.6-10V134h-9.5h-9.5v-5.3c0-2.8,0.4-9,1-13.5c1.1-9.7,5.4-18.6,12.2-25.4l4.1-4.1l7.102,0.7
	c3.898,0.4,8.198,0.7,9.6,0.9c2,0.2,2.9-0.7,5.2-4.8c2.699-5,6.1-16.3,7.199-24.1l0.601-4.1l-5.101-1.1
	c-7.5-1.8-18.399-1.5-22.601,0.5c-4.3,2-10.3,9.5-15.899,19.9c-4.899,9-4.899,9-6-9.9l-0.6-11.7l-4.2,0.1
	C1028.4,52.2,1019.5,53.3,1011,54.6z"/>
<path d="M1117.5,54.9c-24.1,3.1-22.2,1.8-22.4,15.3L1095,78h7.5h7.5l-0.2,27.7l-0.3,27.8l-6.2,0.3l-6.3,0.3v9.9v10h31h31v-10v-9.9
	l-6.2-0.3l-6.1-0.3l0.2-40.8l0.3-40.7l-4.4,0.1C1140.4,52.2,1129.1,53.5,1117.5,54.9z"/>
<path d="M1268,63.9v10l4.6,0.3l4.602,0.3l9.898,26c5.5,14.3,12.9,33.3,16.5,42.3l6.602,16.3l-2.801,4.7
	c-3.5,6-16.199,18.8-23.601,23.7c-3.7,2.4-5.8,4.5-5.8,5.7c0,4.7,19.1,17.8,26,17.8c9.9,0,34.6-45.6,60.6-111.7l9.9-25.3h4.3h4.2V64
	V54h-23h-23v10v10h3.8c2.101,0,4.101,0.2,4.4,0.5c0.7,0.7-5.4,27.4-9,39.4l-2.9,9.3l-4.6-13.3c-2.5-7.4-6.102-18.4-8-24.4l-3.4-11
	l4.8-0.3l4.9-0.3v-10V54h-29.5H1268V63.9z"/>
<path fill="#EF4C39" d="M640.9,237.4c-9.5,2.5-20.2,11.5-24,20.199c-1.102,2.301-2.302,7.601-2.7,11.601l-0.7,7.3l-5.2,0.3l-5.3,0.3
	v7.5v7.4h5.4h5.3l0.7,20c0.398,11,0.5,20.4,0.1,21c-0.3,0.5-2.4,1-4.6,1H606v7.7v7.6l14.3-0.6c7.8-0.4,19-0.7,25-0.7H656v-7v-7h-7.5
	H641v-20.5v-20.4l10.3-0.3l10.2-0.3l0.3-7.8l0.3-7.7h-10.5h-10.5l0.602-9.8c0.3-5.3,1-10.5,1.5-11.5c1.2-2.3,6.398-2.2,13,0.399
	l5.3,2.101l2.6-3.2c2.9-3.4,6.4-13.2,5.602-15.4C668.5,236.5,649.7,235,640.9,237.4z"/>
<path fill="#EF4C39" d="M456.5,242.7c-12.8,2.7-21.8,9.1-27.1,19.3c-1.102,2.3-1.9,6.5-2.2,12.2c-0.4,7.399-0.102,9.3,1.7,13.1
	c4.5,9.2,12.3,15.101,28.698,21.7c11.302,4.6,14.4,7.2,14.4,12.4c0,4.398-2,7.699-5.8,9.898c-3.9,2.301-11.5,2.602-16,0.801
	c-2.9-1.199-3.5-2.301-5.8-10c-1.5-4.699-2.802-8.801-2.9-8.899c-0.5-0.601-15.1,2-16.5,2.8c-1,0.6-0.9,4,0.5,15.9l1.8,15.1
	l3.602,1.1c5.6,1.7,28.8,2.301,36.698,1c19.5-3.398,30.302-14.6,31.2-32.5c0.9-17.5-6.398-25.398-32.8-35.199
	c-9.1-3.399-12-6-12-10.899c0-7.7,5.101-12.5,13.3-12.5c6.3,0,8.2,2,10.102,11l1.6,7.601l8.3-0.899c4.5-0.5,8.5-1.2,8.8-1.5
	c1-1.101-1.198-28.601-2.5-29.9C490.6,241.1,468.4,240.1,456.5,242.7z"/>
<path fill="#EF4C39" d="M1155,250.5v7.5h5h5l-0.2,37.2l-0.3,37.3l-4.5,0.5l-4.5,0.5l-0.3,7.5l-0.3,7.5h24.6h24.5v-7.1
	c0-8-0.3-8.4-7.1-8.4h-3.9l0.2-37.3l0.3-37.2l5-0.5l5-0.5l0.3-7.3l0.3-7.2h-24.6H1155V250.5z"/>
<path fill="#EF4C39" d="M694.1,258c-5.698,2.2-10.5,4.1-10.698,4.2c-0.102,0.2-0.602,3.399-1.102,7.3l-0.8,7l-5.7,0.9l-5.8,0.8
	v7.399v7.399h5.5h5.5V315.6c0,25.801,0.4,27.199,8.4,31.899c3.6,2.101,5.5,2.5,12.698,2.5c9.302,0,18.4-1.2,27.2-3.7l5.8-1.6
	l-0.6-4.102c-1.7-11.3-1.5-10.8-4.4-10.199c-1.398,0.399-6,0.899-10.198,1.199c-6.9,0.602-7.802,0.5-9.802-1.5s-2.1-3.1-2.1-19.6
	V293h11.9h11.9l0.602-3.1c0.3-1.7,0.6-5.301,0.6-8V277h-12.5H708v-11.5c0-10.3-0.2-11.5-1.7-11.5C705.3,254,699.8,255.8,694.1,258z"
	/>
<path fill="#EF4C39" d="M542.8,276.4c-12,3.5-21.5,12-25.898,23.3c-3.4,8.8-3.302,22.7,0.3,30.399c6,13,15.6,18.899,31.898,19.699
	c11,0.5,18-0.8,25.2-4.6c12.7-6.801,21-23.301,19.2-38.5c-1.5-13.602-7.3-22.5-18.1-27.801c-6-3-7.602-3.301-17.2-3.601
	C551.3,275.2,545.8,275.5,542.8,276.4z M559.9,290.9c3.3,3.3,4.6,9.8,4.5,22.6c0,9.9-0.4,12.8-2.102,16.6
	c-3.7,8.2-11.2,8.7-15.6,1.102c-3.7-6.301-3.9-29.102-0.3-36c0.898-1.7,2.3-3.7,3.1-4.602C551.8,288.4,557.6,288.6,559.9,290.9z"/>
<path fill="#EF4C39" d="M897.3,276.5c-9.398,2.6-25.3,11.9-25.3,14.9c0,1,2.8,5.199,7.6,11.5c0.2,0.199,4-1.602,8.602-3.9
	c10.398-5.5,15.8-5.9,19.398-1.7c1.4,1.601,2.4,4.101,2.4,5.8v2.9h-7.7c-13.3,0-23,3.7-30,11.2c-9.8,10.7-7.7,22.7,5.3,30.1
	c4.4,2.5,5.7,2.7,11.9,2.4c4.6-0.3,9.6-1.4,14.5-3.3l7.5-3l2.8,3.3c2.8,3.2,3.2,3.3,10,3.2c4-0.102,10.102-0.602,13.7-1.301
	l6.5-1.101l0.3-7.3l0.3-7.2h-4.6H936v-19.8c0-16.9-0.3-20.301-1.9-23.7c-2.3-5.101-9.8-11.8-14.898-13.3
	C914,274.6,903.8,274.8,897.3,276.5z M910,324.4c0,6-0.6,6.8-6.7,8.6c-3.7,1.1-4.6,1.1-6.8-0.4c-3.3-2.1-4.1-4.1-2.9-7.398
	c1.2-3.301,6.802-6.2,12.102-6.2h4.3L910,324.4L910,324.4z"/>
<path fill="#EF4C39" d="M969,277.1c-6.9,1-13.1,1.801-13.7,1.9c-0.898,0-1.3,2.1-1.3,6.9c0,7.398,0.6,8,6.8,8.1h2.2v20v20h-2.4
	c-5.1,0-5.6,0.7-5.6,8.3v7l11.3-0.6c6.102-0.4,16.9-0.7,24-0.7h12.7v-7v-7h-6.6h-6.7l0.5-8.8c0.6-9.7,3.1-16.101,8.8-22.2
	c3-3.3,3.1-3.3,10-2.7c6.4,0.5,7.1,0.4,8.5-1.6c2-2.8,5.2-13.2,5.6-18.2c0.302-3.5,0.102-4-2.1-4.6c-1.4-0.4-5.4-0.7-9-0.802
	c-8.8-0.1-11.6,1.7-17.8,11.802l-4.9,8.1l-0.7-4.6c-0.3-2.602-0.6-7.102-0.6-10V275l-3.2,0.1C983,275.2,975.9,276,969,277.1z"/>
<path fill="#EF4C39" d="M1056.8,276.9c-7.3,2.398-11.6,5.1-16.8,10.699c-15.1,16.399-14.1,44.601,2,55.601c12.2,8.3,30.8,9,51,2
	l5.5-1.9l-0.2-5c-0.1-2.7-0.6-6.1-1.2-7.5l-1-2.6l-7,1.8c-19.6,5.2-28,2.9-31.5-8.8l-0.698-2.2h18h18.1l4-4c3.601-3.6,4-4.5,4-8.9
	c0-2.699-0.899-7.898-2.1-11.6c-2.7-8.8-9.102-15.6-17-17.9C1075,274.5,1063.9,274.7,1056.8,276.9z M1071.3,291
	c2.602,2.1,4.7,7.3,4.7,11.7c0,2.2-0.3,2.3-9.6,2.3h-9.602l0.7-3.8c0.9-5,3.6-9.4,6.6-10.9C1067.4,288.6,1068.3,288.7,1071.3,291z"
	/>
<path fill="#EF4C39" d="M1234,277.1c-5.8,1-12.2,1.801-14.2,1.801l-3.8,0.101v7.5v7.5h5.5h5.5l-0.2,19.7l-0.3,19.8l-4.2,0.3
	l-4.3,0.301v7.601v7.6l14.3-0.6c7.8-0.4,17.2-0.7,21-0.7h6.7v-7v-7h-3.6c-3.302,0-3.602-0.2-3-2.3c0.3-1.2,0.6-8.8,0.6-16.9v-14.6
	l5.2-2.601c6.6-3.301,9.1-3.301,11.7,0c1.898,2.5,2.1,4,2.1,19.5V334h-3.5h-3.5v7.7v7.6l13.7-0.6c7.5-0.4,16.898-0.7,21-0.7h7.3v-7
	v-7h-4.1h-4.102l0.7-16.8c0.899-19.3-0.101-25.9-4.5-32c-5.101-7.101-9.4-9.601-16.9-10c-6.398-0.4-7.1-0.2-16.398,4.6
	c-5.301,2.8-9.801,4.8-10.102,4.4c-0.198-0.4-0.698-2.601-1.1-5c-0.601-3.9-0.9-4.2-3.8-4.101C1245.9,275.2,1239.8,276.1,1234,277.1
	z"/>
<path fill="#EF4C39" d="M1351.3,276.4c-29.398,7.398-43,41.3-25.3,62.8c1.8,2.1,5.9,5.1,9.8,7c6.4,3.2,7.102,3.3,18.2,3.3
	c10.1-0.1,12.5-0.5,20-3c8.5-3,8.5-3,8.8-6.7c0.2-2-0.2-5.5-0.8-7.7l-1-4l-5.8,2c-7.5,2.7-17.9,3-21.5,0.602
	c-4.5-2.9-6.9-9-6.9-17.301c0.101-9.301,1.8-14.899,5.601-18.101c2.601-2.2,3.699-2.5,8.101-2c2.7,0.3,7.2,1.5,9.899,2.601
	c3.699,1.601,5.199,1.899,6.199,1c2.301-1.899,6.4-11.601,6.4-15.199c0-3-0.4-3.7-3.2-4.7C1374.9,275.2,1357.4,274.8,1351.3,276.4z"
	/>
<path fill="#EF4C39" d="M740,283.5v7.5h3c1.8,0,3.3,0.7,3.8,1.7s4,14.3,7.8,29.6l6.9,27.7h12.1h12.2l6.9-17.3l6.898-17.3l4.9,17.3
	l5,17.3h12.6c11.2,0,12.7-0.2,13.2-1.8c0.3-0.9,4.8-14.101,10-29.2l9.5-27.5l3.102-0.3l3.1-0.3v-7.5V276h-17.5H826v7.4v7.5l3.8,0.3
	c3.4,0.3,3.7,0.5,3.5,3.3c-0.398,6-5.7,32.5-6.398,31.8c-0.4-0.5-2.102-6.899-3.802-14.3c-1.698-7.4-4.1-17-5.198-21.3L815.8,283
	H804.9H794l-1.1,2.7c-0.602,1.5-3.5,10.899-6.602,20.8c-3.1,9.9-5.898,18.4-6.3,18.8c-0.6,0.7-5-27.899-5-32.6
	c0-1.4,0.9-1.7,4.5-1.7h4.5v-7.5V276h-22h-22L740,283.5L740,283.5z"/>
<g transform="translate(0.000000,96.000000) scale(0.100000,-0.100000)">
	<path fill="#EF4C39" d="M697.71-362.832L175.234-663.325v-223.599c0-207.91,1.821-223.643,32.656-218.389
		c19.956,3.477,268.496,146.729,553.32,319.688l520.664,314.473v206.143c0,183.437-3.623,204.399-30.84,202.656
		C1232.891-62.354,984.35-198.623,697.71-362.832z"/>
	<path fill="#EF4C39" d="M2243.388-265.01v-206.143l520.664-314.473c286.636-172.959,535.186-316.211,553.32-319.688
		c30.849-5.254,32.656,10.479,32.656,218.389v225.342L2829.36-366.338c-284.824,164.219-535.181,298.745-553.325,302.236
		C2245.19-58.857,2243.388-74.58,2243.388-265.01z"/>
	<path fill="#EF4C39" d="M761.211-1162.969c-83.447-55.898-132.432-99.57-132.432-120.547c0-20.957,99.775-101.309,304.771-242.852
		c168.73-117.031,315.679-211.367,326.558-211.367c16.333,0,21.768,64.648,21.768,214.883v216.631l-181.416,115.312
		c-99.775,64.619-186.855,117.031-194.116,117.031C897.27-1073.877,831.968-1114.043,761.211-1162.969z"/>
	<path fill="#EF4C39" d="M2421.172-1190.908l-177.783-115.312v-216.631c0-186.943,3.623-216.631,27.207-211.377
		c52.617,10.469,642.227,424.502,642.227,450.713c0,26.191-263.057,211.377-297.529,207.9
		C2604.414-1075.615,2517.319-1128.037,2421.172-1190.908z"/>
</g>
</svg>
